<mxfile host="Electron" agent="Mozilla/5.0 (Windows NT 10.0; Win64; x64) AppleWebKit/537.36 (KHTML, like Gecko) draw.io/27.0.2 Chrome/134.0.6998.205 Electron/35.3.0 Safari/537.36" version="27.0.2">
  <diagram name="Página-1" id="DMsDbzK3XKLz_4JFjU-V">
    <mxGraphModel dx="989" dy="716" grid="1" gridSize="10" guides="1" tooltips="1" connect="1" arrows="1" fold="1" page="1" pageScale="1" pageWidth="827" pageHeight="1169" math="0" shadow="0">
      <root>
        <mxCell id="0" />
        <mxCell id="1" parent="0" />
        <mxCell id="EOPvbNhlGrvC1XO8uzAB-4" value="Painel Admin" style="ellipse;whiteSpace=wrap;html=1;" vertex="1" parent="1">
          <mxGeometry x="329" y="36" width="140" height="70" as="geometry" />
        </mxCell>
        <mxCell id="EOPvbNhlGrvC1XO8uzAB-5" value="Membros" style="ellipse;whiteSpace=wrap;html=1;" vertex="1" parent="1">
          <mxGeometry x="120" y="320" width="140" height="70" as="geometry" />
        </mxCell>
        <mxCell id="EOPvbNhlGrvC1XO8uzAB-6" value="Unidades" style="ellipse;whiteSpace=wrap;html=1;" vertex="1" parent="1">
          <mxGeometry x="120" y="420" width="140" height="70" as="geometry" />
        </mxCell>
        <mxCell id="EOPvbNhlGrvC1XO8uzAB-9" value="Classes" style="ellipse;whiteSpace=wrap;html=1;" vertex="1" parent="1">
          <mxGeometry x="120" y="106" width="140" height="70" as="geometry" />
        </mxCell>
        <mxCell id="EOPvbNhlGrvC1XO8uzAB-10" value="Especialidades" style="ellipse;whiteSpace=wrap;html=1;" vertex="1" parent="1">
          <mxGeometry x="560" y="106" width="140" height="70" as="geometry" />
        </mxCell>
        <mxCell id="EOPvbNhlGrvC1XO8uzAB-11" value="Secretaria" style="ellipse;whiteSpace=wrap;html=1;" vertex="1" parent="1">
          <mxGeometry x="560" y="210" width="140" height="70" as="geometry" />
        </mxCell>
        <mxCell id="EOPvbNhlGrvC1XO8uzAB-12" value="Financeiro" style="ellipse;whiteSpace=wrap;html=1;" vertex="1" parent="1">
          <mxGeometry x="560" y="320" width="140" height="70" as="geometry" />
        </mxCell>
        <mxCell id="EOPvbNhlGrvC1XO8uzAB-13" value="Patrimônio" style="ellipse;whiteSpace=wrap;html=1;" vertex="1" parent="1">
          <mxGeometry x="120" y="210" width="140" height="70" as="geometry" />
        </mxCell>
        <mxCell id="EOPvbNhlGrvC1XO8uzAB-14" value="Patrimônio" style="ellipse;whiteSpace=wrap;html=1;" vertex="1" parent="1">
          <mxGeometry x="560" y="420" width="140" height="70" as="geometry" />
        </mxCell>
        <mxCell id="EOPvbNhlGrvC1XO8uzAB-17" style="rounded=0;orthogonalLoop=1;jettySize=auto;html=1;strokeWidth=3;" edge="1" parent="1" source="EOPvbNhlGrvC1XO8uzAB-16" target="EOPvbNhlGrvC1XO8uzAB-4">
          <mxGeometry relative="1" as="geometry" />
        </mxCell>
        <mxCell id="EOPvbNhlGrvC1XO8uzAB-20" style="rounded=0;orthogonalLoop=1;jettySize=auto;html=1;entryX=1;entryY=0.5;entryDx=0;entryDy=0;strokeWidth=3;" edge="1" parent="1" source="EOPvbNhlGrvC1XO8uzAB-16" target="EOPvbNhlGrvC1XO8uzAB-9">
          <mxGeometry relative="1" as="geometry" />
        </mxCell>
        <mxCell id="EOPvbNhlGrvC1XO8uzAB-22" style="rounded=0;orthogonalLoop=1;jettySize=auto;html=1;entryX=1;entryY=0.5;entryDx=0;entryDy=0;strokeWidth=3;" edge="1" parent="1" source="EOPvbNhlGrvC1XO8uzAB-16" target="EOPvbNhlGrvC1XO8uzAB-13">
          <mxGeometry relative="1" as="geometry" />
        </mxCell>
        <mxCell id="EOPvbNhlGrvC1XO8uzAB-23" style="rounded=0;orthogonalLoop=1;jettySize=auto;html=1;entryX=1;entryY=0.5;entryDx=0;entryDy=0;strokeWidth=3;" edge="1" parent="1" source="EOPvbNhlGrvC1XO8uzAB-16" target="EOPvbNhlGrvC1XO8uzAB-5">
          <mxGeometry relative="1" as="geometry" />
        </mxCell>
        <mxCell id="EOPvbNhlGrvC1XO8uzAB-24" style="rounded=0;orthogonalLoop=1;jettySize=auto;html=1;entryX=1;entryY=0.5;entryDx=0;entryDy=0;strokeWidth=3;" edge="1" parent="1" source="EOPvbNhlGrvC1XO8uzAB-16" target="EOPvbNhlGrvC1XO8uzAB-6">
          <mxGeometry relative="1" as="geometry" />
        </mxCell>
        <mxCell id="EOPvbNhlGrvC1XO8uzAB-25" style="rounded=0;orthogonalLoop=1;jettySize=auto;html=1;strokeWidth=3;" edge="1" parent="1" source="EOPvbNhlGrvC1XO8uzAB-16" target="EOPvbNhlGrvC1XO8uzAB-10">
          <mxGeometry relative="1" as="geometry" />
        </mxCell>
        <mxCell id="EOPvbNhlGrvC1XO8uzAB-26" style="rounded=0;orthogonalLoop=1;jettySize=auto;html=1;entryX=0;entryY=0.5;entryDx=0;entryDy=0;strokeWidth=3;" edge="1" parent="1" source="EOPvbNhlGrvC1XO8uzAB-16" target="EOPvbNhlGrvC1XO8uzAB-11">
          <mxGeometry relative="1" as="geometry" />
        </mxCell>
        <mxCell id="EOPvbNhlGrvC1XO8uzAB-27" style="rounded=0;orthogonalLoop=1;jettySize=auto;html=1;entryX=0;entryY=0.5;entryDx=0;entryDy=0;strokeWidth=3;" edge="1" parent="1" source="EOPvbNhlGrvC1XO8uzAB-16" target="EOPvbNhlGrvC1XO8uzAB-12">
          <mxGeometry relative="1" as="geometry" />
        </mxCell>
        <mxCell id="EOPvbNhlGrvC1XO8uzAB-28" style="rounded=0;orthogonalLoop=1;jettySize=auto;html=1;entryX=0;entryY=0.5;entryDx=0;entryDy=0;strokeWidth=3;" edge="1" parent="1" source="EOPvbNhlGrvC1XO8uzAB-16" target="EOPvbNhlGrvC1XO8uzAB-14">
          <mxGeometry relative="1" as="geometry" />
        </mxCell>
        <mxCell id="EOPvbNhlGrvC1XO8uzAB-16" value="Admin" style="shape=umlActor;verticalLabelPosition=bottom;verticalAlign=top;html=1;" vertex="1" parent="1">
          <mxGeometry x="371" y="200" width="56" height="90" as="geometry" />
        </mxCell>
        <mxCell id="EOPvbNhlGrvC1XO8uzAB-33" value="Membros" style="ellipse;whiteSpace=wrap;html=1;" vertex="1" parent="1">
          <mxGeometry x="120" y="761" width="140" height="70" as="geometry" />
        </mxCell>
        <mxCell id="EOPvbNhlGrvC1XO8uzAB-34" value="Unidades" style="ellipse;whiteSpace=wrap;html=1;" vertex="1" parent="1">
          <mxGeometry x="120" y="861" width="140" height="70" as="geometry" />
        </mxCell>
        <mxCell id="EOPvbNhlGrvC1XO8uzAB-35" value="Classes" style="ellipse;whiteSpace=wrap;html=1;" vertex="1" parent="1">
          <mxGeometry x="120" y="547" width="140" height="70" as="geometry" />
        </mxCell>
        <mxCell id="EOPvbNhlGrvC1XO8uzAB-36" value="Especialidades" style="ellipse;whiteSpace=wrap;html=1;" vertex="1" parent="1">
          <mxGeometry x="560" y="547" width="140" height="70" as="geometry" />
        </mxCell>
        <mxCell id="EOPvbNhlGrvC1XO8uzAB-37" value="Secretaria" style="ellipse;whiteSpace=wrap;html=1;" vertex="1" parent="1">
          <mxGeometry x="560" y="651" width="140" height="70" as="geometry" />
        </mxCell>
        <mxCell id="EOPvbNhlGrvC1XO8uzAB-38" value="Financeiro" style="ellipse;whiteSpace=wrap;html=1;" vertex="1" parent="1">
          <mxGeometry x="560" y="761" width="140" height="70" as="geometry" />
        </mxCell>
        <mxCell id="EOPvbNhlGrvC1XO8uzAB-39" value="Patrimônio" style="ellipse;whiteSpace=wrap;html=1;" vertex="1" parent="1">
          <mxGeometry x="120" y="651" width="140" height="70" as="geometry" />
        </mxCell>
        <mxCell id="EOPvbNhlGrvC1XO8uzAB-40" value="Patrimônio" style="ellipse;whiteSpace=wrap;html=1;" vertex="1" parent="1">
          <mxGeometry x="560" y="861" width="140" height="70" as="geometry" />
        </mxCell>
        <mxCell id="EOPvbNhlGrvC1XO8uzAB-42" style="rounded=0;orthogonalLoop=1;jettySize=auto;html=1;entryX=1;entryY=0.5;entryDx=0;entryDy=0;strokeWidth=3;" edge="1" parent="1" source="EOPvbNhlGrvC1XO8uzAB-50" target="EOPvbNhlGrvC1XO8uzAB-35">
          <mxGeometry relative="1" as="geometry" />
        </mxCell>
        <mxCell id="EOPvbNhlGrvC1XO8uzAB-43" style="rounded=0;orthogonalLoop=1;jettySize=auto;html=1;entryX=1;entryY=0.5;entryDx=0;entryDy=0;strokeWidth=3;" edge="1" parent="1" source="EOPvbNhlGrvC1XO8uzAB-50" target="EOPvbNhlGrvC1XO8uzAB-39">
          <mxGeometry relative="1" as="geometry" />
        </mxCell>
        <mxCell id="EOPvbNhlGrvC1XO8uzAB-44" style="rounded=0;orthogonalLoop=1;jettySize=auto;html=1;entryX=1;entryY=0.5;entryDx=0;entryDy=0;strokeWidth=3;" edge="1" parent="1" source="EOPvbNhlGrvC1XO8uzAB-50" target="EOPvbNhlGrvC1XO8uzAB-33">
          <mxGeometry relative="1" as="geometry" />
        </mxCell>
        <mxCell id="EOPvbNhlGrvC1XO8uzAB-45" style="rounded=0;orthogonalLoop=1;jettySize=auto;html=1;entryX=1;entryY=0.5;entryDx=0;entryDy=0;strokeWidth=3;" edge="1" parent="1" source="EOPvbNhlGrvC1XO8uzAB-50" target="EOPvbNhlGrvC1XO8uzAB-34">
          <mxGeometry relative="1" as="geometry" />
        </mxCell>
        <mxCell id="EOPvbNhlGrvC1XO8uzAB-46" style="rounded=0;orthogonalLoop=1;jettySize=auto;html=1;strokeWidth=3;" edge="1" parent="1" source="EOPvbNhlGrvC1XO8uzAB-50" target="EOPvbNhlGrvC1XO8uzAB-36">
          <mxGeometry relative="1" as="geometry" />
        </mxCell>
        <mxCell id="EOPvbNhlGrvC1XO8uzAB-47" style="rounded=0;orthogonalLoop=1;jettySize=auto;html=1;entryX=0;entryY=0.5;entryDx=0;entryDy=0;strokeWidth=3;" edge="1" parent="1" source="EOPvbNhlGrvC1XO8uzAB-50" target="EOPvbNhlGrvC1XO8uzAB-37">
          <mxGeometry relative="1" as="geometry" />
        </mxCell>
        <mxCell id="EOPvbNhlGrvC1XO8uzAB-48" style="rounded=0;orthogonalLoop=1;jettySize=auto;html=1;entryX=0;entryY=0.5;entryDx=0;entryDy=0;strokeWidth=3;" edge="1" parent="1" source="EOPvbNhlGrvC1XO8uzAB-50" target="EOPvbNhlGrvC1XO8uzAB-38">
          <mxGeometry relative="1" as="geometry" />
        </mxCell>
        <mxCell id="EOPvbNhlGrvC1XO8uzAB-49" style="rounded=0;orthogonalLoop=1;jettySize=auto;html=1;entryX=0;entryY=0.5;entryDx=0;entryDy=0;strokeWidth=3;" edge="1" parent="1" source="EOPvbNhlGrvC1XO8uzAB-50" target="EOPvbNhlGrvC1XO8uzAB-40">
          <mxGeometry relative="1" as="geometry" />
        </mxCell>
        <mxCell id="EOPvbNhlGrvC1XO8uzAB-50" value="Diretor" style="shape=umlActor;verticalLabelPosition=bottom;verticalAlign=top;html=1;" vertex="1" parent="1">
          <mxGeometry x="371" y="641" width="56" height="90" as="geometry" />
        </mxCell>
        <mxCell id="EOPvbNhlGrvC1XO8uzAB-53" value="Membros" style="ellipse;whiteSpace=wrap;html=1;" vertex="1" parent="1">
          <mxGeometry x="790" y="222" width="140" height="70" as="geometry" />
        </mxCell>
        <mxCell id="EOPvbNhlGrvC1XO8uzAB-54" value="Unidades" style="ellipse;whiteSpace=wrap;html=1;" vertex="1" parent="1">
          <mxGeometry x="790" y="322" width="140" height="70" as="geometry" />
        </mxCell>
        <mxCell id="EOPvbNhlGrvC1XO8uzAB-57" value="Secretaria" style="ellipse;whiteSpace=wrap;html=1;" vertex="1" parent="1">
          <mxGeometry x="1230" y="102" width="140" height="70" as="geometry" />
        </mxCell>
        <mxCell id="EOPvbNhlGrvC1XO8uzAB-58" value="Financeiro" style="ellipse;whiteSpace=wrap;html=1;" vertex="1" parent="1">
          <mxGeometry x="1230" y="212" width="140" height="70" as="geometry" />
        </mxCell>
        <mxCell id="EOPvbNhlGrvC1XO8uzAB-59" value="Patrimônio" style="ellipse;whiteSpace=wrap;html=1;" vertex="1" parent="1">
          <mxGeometry x="790" y="112" width="140" height="70" as="geometry" />
        </mxCell>
        <mxCell id="EOPvbNhlGrvC1XO8uzAB-60" value="Patrimônio" style="ellipse;whiteSpace=wrap;html=1;" vertex="1" parent="1">
          <mxGeometry x="1230" y="312" width="140" height="70" as="geometry" />
        </mxCell>
        <mxCell id="EOPvbNhlGrvC1XO8uzAB-62" style="rounded=0;orthogonalLoop=1;jettySize=auto;html=1;entryX=1;entryY=0.5;entryDx=0;entryDy=0;strokeWidth=3;" edge="1" parent="1" source="EOPvbNhlGrvC1XO8uzAB-69">
          <mxGeometry relative="1" as="geometry">
            <mxPoint x="930" y="137" as="targetPoint" />
          </mxGeometry>
        </mxCell>
        <mxCell id="EOPvbNhlGrvC1XO8uzAB-63" style="rounded=0;orthogonalLoop=1;jettySize=auto;html=1;entryX=1;entryY=0.5;entryDx=0;entryDy=0;strokeWidth=3;" edge="1" parent="1" source="EOPvbNhlGrvC1XO8uzAB-69">
          <mxGeometry relative="1" as="geometry">
            <mxPoint x="930" y="247" as="targetPoint" />
          </mxGeometry>
        </mxCell>
        <mxCell id="EOPvbNhlGrvC1XO8uzAB-64" style="rounded=0;orthogonalLoop=1;jettySize=auto;html=1;entryX=1;entryY=0.5;entryDx=0;entryDy=0;strokeWidth=3;" edge="1" parent="1" source="EOPvbNhlGrvC1XO8uzAB-69">
          <mxGeometry relative="1" as="geometry">
            <mxPoint x="930" y="347" as="targetPoint" />
          </mxGeometry>
        </mxCell>
        <mxCell id="EOPvbNhlGrvC1XO8uzAB-66" style="rounded=0;orthogonalLoop=1;jettySize=auto;html=1;entryX=0;entryY=0.5;entryDx=0;entryDy=0;strokeWidth=3;" edge="1" parent="1" source="EOPvbNhlGrvC1XO8uzAB-69" target="EOPvbNhlGrvC1XO8uzAB-57">
          <mxGeometry relative="1" as="geometry" />
        </mxCell>
        <mxCell id="EOPvbNhlGrvC1XO8uzAB-67" style="rounded=0;orthogonalLoop=1;jettySize=auto;html=1;entryX=0;entryY=0.5;entryDx=0;entryDy=0;strokeWidth=3;" edge="1" parent="1" source="EOPvbNhlGrvC1XO8uzAB-69" target="EOPvbNhlGrvC1XO8uzAB-58">
          <mxGeometry relative="1" as="geometry" />
        </mxCell>
        <mxCell id="EOPvbNhlGrvC1XO8uzAB-68" style="rounded=0;orthogonalLoop=1;jettySize=auto;html=1;entryX=0;entryY=0.5;entryDx=0;entryDy=0;strokeWidth=3;" edge="1" parent="1" source="EOPvbNhlGrvC1XO8uzAB-69" target="EOPvbNhlGrvC1XO8uzAB-60">
          <mxGeometry relative="1" as="geometry" />
        </mxCell>
        <mxCell id="EOPvbNhlGrvC1XO8uzAB-69" value="Secretário" style="shape=umlActor;verticalLabelPosition=bottom;verticalAlign=top;html=1;" vertex="1" parent="1">
          <mxGeometry x="1041" y="92" width="56" height="90" as="geometry" />
        </mxCell>
        <mxCell id="EOPvbNhlGrvC1XO8uzAB-123" style="rounded=0;orthogonalLoop=1;jettySize=auto;html=1;entryX=0;entryY=0.5;entryDx=0;entryDy=0;strokeWidth=3;" edge="1" parent="1" source="EOPvbNhlGrvC1XO8uzAB-82" target="EOPvbNhlGrvC1XO8uzAB-58">
          <mxGeometry relative="1" as="geometry" />
        </mxCell>
        <mxCell id="EOPvbNhlGrvC1XO8uzAB-82" value="Tesoureiro" style="shape=umlActor;verticalLabelPosition=bottom;verticalAlign=top;html=1;" vertex="1" parent="1">
          <mxGeometry x="1039" y="438" width="56" height="90" as="geometry" />
        </mxCell>
        <mxCell id="EOPvbNhlGrvC1XO8uzAB-97" value="Unidades" style="ellipse;whiteSpace=wrap;html=1;" vertex="1" parent="1">
          <mxGeometry x="831" y="733" width="140" height="70" as="geometry" />
        </mxCell>
        <mxCell id="EOPvbNhlGrvC1XO8uzAB-98" value="Classes" style="ellipse;whiteSpace=wrap;html=1;" vertex="1" parent="1">
          <mxGeometry x="861" y="593" width="140" height="70" as="geometry" />
        </mxCell>
        <mxCell id="EOPvbNhlGrvC1XO8uzAB-99" value="Especialidades" style="ellipse;whiteSpace=wrap;html=1;" vertex="1" parent="1">
          <mxGeometry x="1151" y="663" width="140" height="70" as="geometry" />
        </mxCell>
        <mxCell id="EOPvbNhlGrvC1XO8uzAB-104" style="rounded=0;orthogonalLoop=1;jettySize=auto;html=1;entryX=1;entryY=0.5;entryDx=0;entryDy=0;strokeWidth=3;" edge="1" parent="1" source="EOPvbNhlGrvC1XO8uzAB-112" target="EOPvbNhlGrvC1XO8uzAB-98">
          <mxGeometry relative="1" as="geometry" />
        </mxCell>
        <mxCell id="EOPvbNhlGrvC1XO8uzAB-107" style="rounded=0;orthogonalLoop=1;jettySize=auto;html=1;entryX=1;entryY=0.5;entryDx=0;entryDy=0;strokeWidth=3;" edge="1" parent="1" source="EOPvbNhlGrvC1XO8uzAB-112" target="EOPvbNhlGrvC1XO8uzAB-97">
          <mxGeometry relative="1" as="geometry" />
        </mxCell>
        <mxCell id="EOPvbNhlGrvC1XO8uzAB-108" style="rounded=0;orthogonalLoop=1;jettySize=auto;html=1;strokeWidth=3;" edge="1" parent="1" source="EOPvbNhlGrvC1XO8uzAB-112" target="EOPvbNhlGrvC1XO8uzAB-99">
          <mxGeometry relative="1" as="geometry" />
        </mxCell>
        <mxCell id="EOPvbNhlGrvC1XO8uzAB-112" value="Instrutor" style="shape=umlActor;verticalLabelPosition=bottom;verticalAlign=top;html=1;" vertex="1" parent="1">
          <mxGeometry x="1032" y="653" width="56" height="90" as="geometry" />
        </mxCell>
        <mxCell id="EOPvbNhlGrvC1XO8uzAB-120" value="Conselheiro" style="shape=umlActor;verticalLabelPosition=bottom;verticalAlign=top;html=1;" vertex="1" parent="1">
          <mxGeometry x="1039" y="858" width="56" height="90" as="geometry" />
        </mxCell>
        <mxCell id="EOPvbNhlGrvC1XO8uzAB-121" style="rounded=0;orthogonalLoop=1;jettySize=auto;html=1;entryX=0.607;entryY=0.948;entryDx=0;entryDy=0;entryPerimeter=0;strokeWidth=3;" edge="1" parent="1" source="EOPvbNhlGrvC1XO8uzAB-120" target="EOPvbNhlGrvC1XO8uzAB-97">
          <mxGeometry relative="1" as="geometry" />
        </mxCell>
        <mxCell id="EOPvbNhlGrvC1XO8uzAB-122" style="rounded=0;orthogonalLoop=1;jettySize=auto;html=1;entryX=0.007;entryY=0.729;entryDx=0;entryDy=0;entryPerimeter=0;strokeWidth=3;" edge="1" parent="1" source="EOPvbNhlGrvC1XO8uzAB-82" target="EOPvbNhlGrvC1XO8uzAB-60">
          <mxGeometry relative="1" as="geometry" />
        </mxCell>
      </root>
    </mxGraphModel>
  </diagram>
</mxfile>
